<svg id="visual" viewBox="0 0 960 540" width="960" height="540" xmlns="http://www.w3.org/2000/svg" xmlns:xlink="http://www.w3.org/1999/xlink" version="1.1"><path d="M0 77L26.7 74.2C53.3 71.3 106.7 65.7 160 67.3C213.3 69 266.7 78 320 83.5C373.3 89 426.7 91 480 84.8C533.3 78.7 586.7 64.3 640 65.2C693.3 66 746.7 82 800 90C853.3 98 906.7 98 933.3 98L960 98L960 0L933.3 0C906.7 0 853.3 0 800 0C746.7 0 693.3 0 640 0C586.7 0 533.3 0 480 0C426.7 0 373.3 0 320 0C266.7 0 213.3 0 160 0C106.7 0 53.3 0 26.7 0L0 0Z" fill="#490933"></path><path d="M0 158L26.7 149.8C53.3 141.7 106.7 125.3 160 126.2C213.3 127 266.7 145 320 149.5C373.3 154 426.7 145 480 136C533.3 127 586.7 118 640 118C693.3 118 746.7 127 800 135.2C853.3 143.3 906.7 150.7 933.3 154.3L960 158L960 96L933.3 96C906.7 96 853.3 96 800 88C746.7 80 693.3 64 640 63.2C586.7 62.3 533.3 76.7 480 82.8C426.7 89 373.3 87 320 81.5C266.7 76 213.3 67 160 65.3C106.7 63.7 53.3 69.3 26.7 72.2L0 75Z" fill="#650244"></path><path d="M0 190L26.7 184.7C53.3 179.3 106.7 168.7 160 173.2C213.3 177.7 266.7 197.3 320 199C373.3 200.7 426.7 184.3 480 171.7C533.3 159 586.7 150 640 150C693.3 150 746.7 159 800 167.2C853.3 175.3 906.7 182.7 933.3 186.3L960 190L960 156L933.3 152.3C906.7 148.7 853.3 141.3 800 133.2C746.7 125 693.3 116 640 116C586.7 116 533.3 125 480 134C426.7 143 373.3 152 320 147.5C266.7 143 213.3 125 160 124.2C106.7 123.3 53.3 139.7 26.7 147.8L0 156Z" fill="#951d6b"></path><path d="M0 266L26.7 261.5C53.3 257 106.7 248 160 253.3C213.3 258.7 266.7 278.3 320 286.3C373.3 294.3 426.7 290.7 480 283.5C533.3 276.3 586.7 265.7 640 256.7C693.3 247.7 746.7 240.3 800 238.5C853.3 236.7 906.7 240.3 933.3 242.2L960 244L960 188L933.3 184.3C906.7 180.7 853.3 173.3 800 165.2C746.7 157 693.3 148 640 148C586.7 148 533.3 157 480 169.7C426.7 182.3 373.3 198.7 320 197C266.7 195.3 213.3 175.7 160 171.2C106.7 166.7 53.3 177.3 26.7 182.7L0 188Z" fill="#951d6b"></path><path d="M0 438L26.7 435.3C53.3 432.7 106.7 427.3 160 415.7C213.3 404 266.7 386 320 379.7C373.3 373.3 426.7 378.7 480 391.3C533.3 404 586.7 424 640 431.3C693.3 438.7 746.7 433.3 800 420.7C853.3 408 906.7 388 933.3 378L960 368L960 242L933.3 240.2C906.7 238.3 853.3 234.7 800 236.5C746.7 238.3 693.3 245.7 640 254.7C586.7 263.7 533.3 274.3 480 281.5C426.7 288.7 373.3 292.3 320 284.3C266.7 276.3 213.3 256.7 160 251.3C106.7 246 53.3 255 26.7 259.5L0 264Z" fill="#650244"></path><path d="M0 541L26.7 541C53.3 541 106.7 541 160 541C213.3 541 266.7 541 320 541C373.3 541 426.7 541 480 541C533.3 541 586.7 541 640 541C693.3 541 746.7 541 800 541C853.3 541 906.7 541 933.3 541L960 541L960 366L933.3 376C906.7 386 853.3 406 800 418.7C746.7 431.3 693.3 436.7 640 429.3C586.7 422 533.3 402 480 389.3C426.7 376.7 373.3 371.3 320 377.7C266.7 384 213.3 402 160 413.7C106.7 425.3 53.3 430.7 26.7 433.3L0 436Z" fill="#490933"></path></svg>