<svg id="visual" viewBox="0 0 960 540" width="960" height="540" xmlns="http://www.w3.org/2000/svg" xmlns:xlink="http://www.w3.org/1999/xlink" version="1.1"><rect x="0" y="0" width="960" height="540" fill="#021a27"></rect><path d="M0 297L40 285.7C80 274.3 160 251.7 240 257C320 262.3 400 295.7 480 318C560 340.3 640 351.7 720 343.3C800 335 880 307 920 293L960 279L960 541L920 541C880 541 800 541 720 541C640 541 560 541 480 541C400 541 320 541 240 541C160 541 80 541 40 541L0 541Z" fill="#030d1e" stroke-linecap="round" stroke-linejoin="miter"></path></svg>